<svg viewBox="-230.13333333333335 -244.68308721028615 460.2666666666667 344.68308721028615" xmlns="http://www.w3.org/2000/svg" xmlns:xlink="http://www.w3.org/1999/xlink" version="1.1" class="jsx-2263963463 artboard-inner" style="width: 168.252px; height: 126px; max-height: 100%;"><g transform="translate(-235.20000000000002 99.2) scale(1.8518518518518516)" fill="#232323"><g id="line1"><path d="M11.304 0.432C15.984 0.432 19.872-3.672 19.872-8.496L19.872-12.456C19.872-14.400 19.512-16.344 18.864-18.144L9.792-40.536C9.432-41.616 9.216-42.696 9.216-43.776L9.216-44.424C9.216-45.792 10.152-46.872 11.304-46.872C12.456-46.872 13.392-45.792 13.392-44.424L13.392-40.176L19.872-40.176L19.872-44.424C19.872-49.248 15.984-53.352 11.304-53.352C6.552-53.352 2.736-49.248 2.736-44.424L2.736-43.776C2.736-41.832 3.096-39.960 3.816-38.160C6.696-30.816 9.864-23.112 12.744-15.768C13.104-14.760 13.392-13.536 13.392-12.456L13.392-8.496C13.392-7.128 12.456-6.048 11.304-6.048C10.152-6.048 9.216-7.128 9.216-8.496L9.216-15.912L2.736-15.912L2.736-8.496C2.736-3.672 6.552 0.432 11.304 0.432Z"></path><path d="M37.656-52.848L25.920-52.848L25.920 0L32.400 0L32.400-12.960L37.656-12.960C48.600-12.960 57.528-21.816 57.528-32.760L57.528-33.048C57.528-43.920 48.600-52.848 37.656-52.848ZM51.120-32.760C51.120-25.272 44.712-19.440 37.656-19.440L32.400-19.440L32.400-46.368L37.656-46.368C45.144-46.368 51.120-40.104 51.120-33.048Z"></path><path d="M84.600-53.568C72-53.568 62.496-42.912 62.496-31.464C62.496-18.864 73.224-9.360 84.600-9.360C97.200-9.360 106.704-20.088 106.704-31.464C106.704-44.064 96.048-53.568 84.600-53.568ZM84.600-15.840C75.888-15.840 68.976-23.184 68.976-31.464C68.976-40.248 76.320-47.088 84.600-47.088C93.384-47.088 100.296-39.744 100.296-31.464C100.296-22.752 92.952-15.840 84.600-15.840ZM71.352 0L97.920 0L97.920-6.480L71.352-6.480Z"></path><path d="M124.056-52.848L112.320-52.848L112.320 0L118.800 0L118.800-12.960L122.832-12.960L127.656 0L134.496 0L129.600-13.752C138.024-16.056 143.928-23.688 143.928-32.760L143.928-33.048C143.928-43.920 135-52.848 124.056-52.848ZM137.520-32.760C137.520-25.272 131.112-19.440 124.056-19.440L118.800-19.440L118.800-46.368L124.056-46.368C131.544-46.368 137.520-40.104 137.520-33.048Z"></path><path d="M163.224-52.848L146.736-52.848L146.736-46.368L151.776-46.368L151.776 0L158.256 0L158.256-46.368L163.224-46.368Z"></path><path d="M185.400-46.368L185.400-52.848L168.984-52.848L168.984 0L185.400 0L185.400-6.480L175.464-6.480L175.464-13.104L181.440-13.104L181.440-19.584L175.464-19.584L175.464-46.368Z"></path><path d="M207.432-52.848L201.240-52.848L189.720 0L196.344 0C197.208-3.744 198.288-8.280 199.080-12.240L204.336-10.224L209.376-12.240L212.040 0L218.592 0ZM204.336-17.136C202.968-17.640 201.744-18.288 200.448-18.792C201.816-25.056 202.968-30.168 204.336-36.216C205.920-28.656 206.496-25.848 208.008-18.648Z"></path><path d="M245.520-52.848C242.928-51.048 240.336-49.032 237.672-47.160L229.824-52.848L224.064-52.848L224.064 0L230.544 0L230.544-44.208L237.600-39.240L244.800-44.208L244.800 0L251.280 0L251.280-52.848Z"></path></g></g><g transform="translate(-159.9256669202922 -400.33039740921294) scale(0.2961586089707504)" id="logomark"><g fill="#232323"><path d="M436.118 926.59q63.687 1.026 109.238 45.387 44.09 45.526 45.053 109.098-.997 63.541-45.186 109.08-45.578 44.286-109.287 45.254-63.688-1.003-109.257-45.351-44.106-45.514-45.088-109.087.978-63.54 45.15-109.091 45.562-44.299 109.27-45.29m.119-15.036q-70.077 1.115-119.913 49.584-48.75 50.626-49.663 119.389.83 69.792 49.43 120.102 49.772 48.586 119.818 49.817 70.077-1.087 119.936-49.539 48.77-50.611 49.708-119.374-.807-69.792-49.385-120.117-49.75-48.602-119.794-49.862"></path><path d="M454.638 817.33q30.956 55.668 15.313 117.297-17.381 60.946-71.955 93.566-55.526 30.907-117.058 15.408-61.143-17.329-93.835-72.019-30.976-55.656-15.353-117.294 17.363-60.955 71.927-93.591 55.517-30.924 117.052-15.444 61.144 17.308 93.856 71.985m13.082-7.416q-36.005-60.13-102.898-79.055-68.219-16.905-128.225 16.685-60.027 35.616-79.297 102.859-17.19 67.397 16.766 128.674 35.98 60.145 102.87 79.098 68.216 16.931 128.235-16.639 60.039-35.594 79.332-102.827 17.216-67.385-16.715-128.676"></path><path d="M558.52 778.74q-32.73 54.642-93.924 71.91-61.472 15.42-117.009-15.532-54.53-32.634-71.873-93.672-15.563-61.615 15.453-117.273 32.712-54.654 93.904-71.943 61.469-15.44 117.016 15.495 54.538 32.618 71.9 93.648 15.583 61.606-15.413 117.275m12.963 7.62q34.072-61.245 17.015-128.639-19.469-67.532-78.562-102.703-60.857-34.178-128.727-17.244-66.963 18.81-103.051 78.857-34.098 61.232-17.067 128.637 19.446 67.542 78.527 102.735 60.845 34.198 128.717 17.29 66.966-18.783 103.08-78.813"></path><path d="M643.882 849.41q-63.687-1.026-109.238-45.387-44.09-45.526-45.053-109.098.997-63.541 45.186-109.08 45.578-44.286 109.287-45.254 63.688 1.003 109.257 45.351 44.106 45.514 45.088 109.087-.978 63.54-45.15 109.091-45.562 44.299-109.27 45.29m-.119 15.036q70.077-1.115 119.913-49.584 48.75-50.626 49.663-119.389-.83-69.792-49.43-120.102-49.772-48.586-119.818-49.817-70.077 1.087-119.936 49.539-48.77 50.611-49.708 119.374.807 69.792 49.385 120.117 49.75 48.602 119.794 49.862M521.48 997.26q32.73-54.642 93.924-71.91 61.472-15.42 117.009 15.532 54.53 32.634 71.873 93.672 15.563 61.615-15.453 117.273-32.712 54.653-93.904 71.943-61.47 15.44-117.015-15.495-54.54-32.618-71.901-93.648-15.583-61.607 15.413-117.275m-12.963-7.62q-34.072 61.245-17.015 128.639 19.469 67.532 78.562 102.703 60.857 34.178 128.727 17.244 66.963-18.811 103.051-78.857 34.098-61.232 17.067-128.637-19.446-67.542-78.527-102.735-60.845-34.198-128.717-17.29-66.965 18.783-103.08 78.813"></path><path d="M625.361 958.669q-30.955-55.667-15.312-117.296 17.38-60.946 71.955-93.567Q737.53 716.9 799.062 732.4q61.142 17.329 93.835 72.019 30.976 55.656 15.353 117.294-17.363 60.954-71.927 93.591-55.517 30.924-117.052 15.444-61.144-17.308-93.856-71.986m-13.082 7.417q36.005 60.13 102.898 79.055 68.218 16.905 128.225-16.685 60.027-35.616 79.297-102.859 17.19-67.397-16.766-128.674-35.98-60.145-102.87-79.098-68.217-16.931-128.235 16.639-60.039 35.594-79.332 102.826-17.216 67.386 16.715 128.677"></path></g></g></svg>
