<svg width="371" height="300" viewBox="0 0 371 300" fill="none" xmlns="http://www.w3.org/2000/svg">
<g clip-path="url(#clip0_199_346)">
<path d="M83.507 151.727C78.7862 151.41 76.5875 152.328 75.1677 153.264C74.7119 153.564 74.2623 153.916 73.8373 154.296C75.9829 149.944 78.1808 145.612 80.4204 141.31C80.4349 141.888 80.5376 142.162 80.7915 142.299C81.3722 142.612 82.727 141.609 85.4131 139.59C87.4548 138.055 87.7156 137.666 87.8674 137.399C88.4011 136.462 88.3557 135.69 88.0267 132.322C87.4363 126.279 87.2842 125.711 87.5704 124.284C87.669 123.793 87.9381 122.609 87.7471 122.541C87.5508 122.471 87.2457 123.713 86.1596 124.524C85.101 125.314 84.356 124.906 83.394 125.414C82.1505 126.072 81.8083 127.592 81.2935 130.039C80.8376 132.207 80.9539 132.973 80.6822 137.057C80.6052 138.214 80.5321 139.114 80.4822 139.822C78.477 143.655 76.5093 147.516 74.5771 151.391C74.6033 151.285 74.6278 151.184 74.6491 151.097C75.247 148.647 75.0477 147.516 74.7473 146.722C74.2604 145.435 73.293 144.665 71.3778 143.176C69.5011 141.718 67.9137 140.878 66.0061 139.881C63.5055 138.573 62.2552 137.919 61.9161 138.11C61.0644 138.59 61.191 141.105 61.9024 144.251C60.2831 143.416 59.423 143.024 59.151 143.178C59.0338 143.244 58.9358 143.349 58.8547 143.489C57.644 143.429 56.0393 143.498 54.2032 143.738C55.6519 143.215 57.28 142.524 59.0338 141.582C60.554 140.766 61.3126 140.35 61.2398 140.007C60.9794 138.779 50.599 138.804 41.7006 143.472C37.5111 145.67 36.118 147.603 35.3976 149.143C35.1662 149.637 34.967 150.172 34.8037 150.719C34.355 145.888 33.9609 141.046 33.6184 136.208C33.9331 136.693 34.164 136.873 34.4521 136.857C35.111 136.82 35.7407 135.257 36.9733 132.132C37.9102 129.756 37.9289 129.288 37.9188 128.981C37.8832 127.904 37.4402 127.269 35.3976 124.571C31.7314 119.729 31.3049 119.325 30.802 117.959C30.6288 117.489 30.2384 116.339 30.0401 116.381C29.8362 116.424 30.2264 117.642 29.7249 118.901C29.2361 120.128 28.3877 120.17 27.834 121.106C27.1182 122.317 27.6223 123.791 28.4643 126.146C29.21 128.232 29.7104 128.824 31.6158 132.447C32.1555 133.473 32.5643 134.278 32.8926 134.908C33.1894 139.223 33.5327 143.542 33.9141 147.855C33.8808 147.751 33.8493 147.653 33.8218 147.568C33.0492 145.167 32.2875 144.307 31.6158 143.787C30.5275 142.945 29.2997 142.794 26.8885 142.527C24.5258 142.265 22.7334 142.38 20.5856 142.527C17.7702 142.721 16.3625 142.817 16.1735 143.157C15.6546 144.091 17.4081 146.485 20.0283 149.047C17.8893 149.199 16.799 149.31 16.6343 149.606C16.2038 150.381 17.3407 152.163 19.2352 154.21C17.9184 154.323 17.2238 154.442 17.0952 154.674C15.6497 157.274 31.8013 171.207 35.3738 168.534C35.6451 168.331 35.8373 168.033 35.9696 167.67C36.0281 168.162 36.0879 168.653 36.1476 169.145C31.9272 168.67 23.82 169.942 19.0098 174.974C16.6186 177.476 16.2582 179.636 16.1735 180.329C15.7977 183.406 17.2957 186.681 18.5385 186.922C18.9055 189.213 20.0553 191.107 20.9989 191.091C22.182 191.07 21.9727 188.065 24.7807 184.79C26.7401 182.505 29.0701 181.369 30.4534 180.695C33.4246 179.247 35.1509 179.289 37.2912 178.11C37.3341 178.428 37.3799 178.745 37.4234 179.063C33.5029 179.72 29.0259 181.401 25.9225 184.648C23.5313 187.15 23.1709 189.309 23.0862 190.003C22.8547 191.899 23.3364 193.867 24.0297 195.16C22.1437 197.14 21.6223 199.208 20.5856 203.326C19.9233 205.957 20.0679 206.89 20.5856 207.421C21.0137 207.86 21.69 208.016 24.3674 207.736C27.2717 207.432 28.7239 207.28 30.0401 206.791C32.122 206.018 33.5573 204.69 36.343 202.066C37.4885 200.987 38.4571 200.07 39.2468 199.27C39.6576 199.41 40.0431 199.517 40.4325 199.594C40.4777 199.603 40.5223 199.609 40.5673 199.617C41.2857 203.873 42.0448 208.116 42.8435 212.341C40.2451 212.921 38.025 214.631 36.8051 217.091L27.1647 236.532C26.5561 237.759 26.2343 239.132 26.2343 240.502V290.491C26.2343 295.42 30.2458 299.43 35.1767 299.43H57.6789C62.6098 299.43 66.6213 295.42 66.6213 290.491V244.46C66.6213 243.338 66.4133 242.24 66.0031 241.195L56.8153 217.795C55.4868 214.412 52.3121 212.209 48.6922 212.13C50.5692 207.18 52.5055 202.237 54.5097 197.313C54.8186 197.193 55.0919 197.069 55.3293 196.937C55.699 197.342 56.4567 197.815 58.0631 198.583C60.6976 199.842 62.0148 200.472 63.3923 200.744C65.5712 201.173 67.4894 200.792 71.237 200.012C76.3361 198.951 78.8965 198.39 79.4299 196.907C80.1681 194.855 77.8527 192.211 77.2145 191.482C75.8275 189.898 74.2965 189.176 73.3505 188.742C72.1221 188.178 68.6211 186.57 64.3889 187.679C61.725 188.377 60.1994 189.867 57.1481 192.847C56.8543 193.134 56.6006 193.395 56.3754 193.638C56.3246 193.492 56.2674 193.348 56.2045 193.205C56.6324 192.173 57.0604 191.142 57.4935 190.113C60.6226 187.146 62.1624 185.512 61.8701 184.11C61.7329 183.451 61.318 182.898 60.7839 182.437C61.3774 181.075 61.9723 179.714 62.5743 178.357C62.8511 178.35 63.1367 178.337 63.4442 178.308C65.0565 178.156 66.882 177.984 67.0767 177.21C67.1796 176.801 66.825 176.202 66.128 175.528C67.1352 175.247 68.6694 173.198 72.1132 172.089C74.9791 171.166 77.5592 171.416 79.091 171.565C83.0439 171.948 84.3338 173.231 87.8878 172.896C89.5001 172.744 91.3255 172.572 91.5202 171.798C91.6077 171.45 91.3632 170.966 90.8632 170.416C91.7588 170.539 92.717 170.637 93.7384 170.696C95.4614 170.795 96.3253 170.838 96.4429 170.507C96.8637 169.324 88.0039 163.917 77.9768 163.243C75.5424 163.08 73.7822 163.246 72.4501 163.573C75.6551 162.377 80.4251 160.558 85.6617 162.03C87.4646 162.537 91.1129 163.937 96.5035 164.247C98.2265 164.346 99.0904 164.388 99.2079 164.058C99.6286 162.875 90.7764 157.473 80.7545 156.795C83.0806 156.325 85.6897 156.194 88.4268 156.963C90.2296 157.47 93.878 158.87 99.2686 159.18C100.992 159.279 101.855 159.321 101.973 158.991C102.394 157.808 93.534 152.401 83.507 151.727ZM37.1862 172.441C37.3219 172.334 37.4551 172.227 37.5834 172.12C37.8134 172.458 38.0563 172.718 38.2993 172.882C38.3252 173.018 38.3529 173.151 38.384 173.283C38.0416 173.246 37.6749 173.222 37.2865 173.209C37.2538 172.953 37.2186 172.696 37.1862 172.441ZM56.9897 154.715C57.0289 154.939 57.0713 155.167 57.118 155.401C56.6896 155.319 56.199 155.261 55.6624 155.226C56.0903 155.071 56.5322 154.902 56.9897 154.715ZM58.0101 158.952C57.6812 158.919 57.3294 158.898 56.9594 158.886C57.2487 158.666 57.5347 158.442 57.7995 158.22C57.8672 158.463 57.9373 158.707 58.0101 158.952ZM50.4235 166.252C53.8168 164.659 55.5741 164.998 58.356 162.908C58.6149 162.714 58.8803 162.514 59.1379 162.313C60.0611 164.774 61.1659 167.121 62.304 168.822C59.1168 167.213 54.738 165.906 50.4235 166.252ZM58.5921 145.958C58.6945 147.3 59.0241 149.007 59.5146 150.841C59.4867 150.84 59.459 150.84 59.4308 150.84C58.213 150.228 57.5421 149.955 57.3076 150.087C57.0634 150.225 56.8998 150.53 56.8072 150.969C52.9801 151.334 47.8217 152.502 43.0831 154.989C38.8937 157.187 37.5005 159.119 36.7801 160.659C36.473 161.315 36.2221 162.043 36.0378 162.774C35.9433 161.926 35.846 161.08 35.7547 160.23C37.8142 159.429 40.9279 151.693 48.6339 149.508C50.379 149.013 54.0416 148.322 58.5921 145.958ZM36.1739 173.205C36.2307 173.163 36.2854 173.127 36.343 173.084C36.4309 173.018 36.5196 172.951 36.6085 172.884C36.6219 172.989 36.6363 173.094 36.6496 173.199C36.4933 173.199 36.3356 173.201 36.1739 173.205ZM37.8808 177.758C38.1293 177.6 38.3824 177.429 38.6473 177.23C39.0459 176.93 39.4604 176.619 39.8367 176.309C40.1281 176.602 40.4268 176.774 40.7076 176.769C40.8175 176.767 40.9125 176.732 41.0019 176.68C40.7604 177.403 40.6181 178.11 40.5728 178.739C39.7799 178.767 38.9321 178.839 38.046 178.965C37.991 178.563 37.935 178.16 37.8808 177.758ZM48.0212 212.122H44.8171C44.3582 212.122 43.9064 212.159 43.463 212.226C42.6777 208.071 41.9309 203.899 41.2233 199.715C43.1075 199.924 44.9875 199.547 48.2772 198.862C50.608 198.377 52.4026 197.996 53.7214 197.585C51.7593 202.416 49.8606 207.266 48.0212 212.122ZM55.5228 191.969C55.7863 191.723 56.0652 191.461 56.356 191.187C56.1783 191.612 56.0053 192.039 55.8285 192.464C55.73 192.293 55.6275 192.128 55.5228 191.969ZM57.1429 180.644C55.1319 180.02 53.4491 180.205 52.4156 180.329C51.1199 180.485 47.5118 180.928 44.54 183.8C43.548 183.774 42.4249 183.828 41.2281 183.979C41.8653 183.687 42.5249 183.307 43.2557 182.758C44.5503 181.785 46.0161 180.684 45.7769 179.923C45.6665 179.571 45.1813 179.279 44.4313 179.07C45.2762 178.511 46.3256 177.934 47.6696 177.501C50.5355 176.578 53.1156 176.828 54.6474 176.977C57.9635 177.299 59.4096 178.25 61.8862 178.351C61.3418 179.58 60.8046 180.813 60.2671 182.045C59.1173 181.261 57.6962 180.816 57.1429 180.644ZM64.4348 174.2C64.4566 174.152 64.4779 174.103 64.4997 174.055C64.6712 174.035 64.8405 174.014 65.0056 173.99C65.0174 174.238 65.0493 174.463 65.099 174.663C64.8925 174.51 64.6681 174.355 64.4348 174.2ZM69.6376 164.78C69.6222 164.79 69.6071 164.802 69.5917 164.812C69.6284 164.681 69.6627 164.554 69.6959 164.43C69.9783 164.391 70.3011 164.312 70.6611 164.202C70.2753 164.386 69.9374 164.583 69.6376 164.78Z" fill="#2F2E41"/>
<path d="M111.144 295.214L118.172 295.214L121.516 268.113L111.142 268.114L111.144 295.214Z" fill="#FFB6B6"/>
<path d="M135.225 295.055C135.444 295.423 135.56 296.612 135.56 297.041C135.56 298.358 134.492 299.426 133.174 299.426H111.406C110.508 299.426 109.779 298.697 109.779 297.799V296.893C109.779 296.893 108.702 294.17 110.919 290.814C110.919 290.814 113.675 293.442 117.792 289.327L119.006 287.128L127.795 293.553L132.666 294.152C133.732 294.283 134.677 294.132 135.225 295.055Z" fill="#2F2E41"/>
<path d="M149.855 295.214L156.884 295.214L160.227 268.113L149.853 268.114L149.855 295.214Z" fill="#FFB6B6"/>
<path d="M173.936 295.055C174.155 295.423 174.271 296.612 174.271 297.041C174.271 298.358 173.203 299.426 171.885 299.426H150.118C149.219 299.426 148.49 298.697 148.49 297.799V296.893C148.49 296.893 147.413 294.17 149.63 290.814C149.63 290.814 152.386 293.442 156.503 289.327L157.717 287.128L166.506 293.553L171.377 294.152C172.443 294.283 173.388 294.132 173.936 295.055Z" fill="#2F2E41"/>
<path d="M147.031 79.4848C147.031 79.4848 155.127 75.7996 160.296 79.4848C165.465 83.17 170.073 116.337 164.543 121.865C159.013 127.393 149.796 114.955 149.796 114.955L147.031 79.4848Z" fill="#FFB6B6"/>
<path d="M116.435 79.9237C116.435 79.9237 108.339 76.2384 103.17 79.9237C98.0006 83.6089 93.3922 116.776 98.9223 122.304C104.452 127.832 113.669 115.394 113.669 115.394L116.435 79.9237Z" fill="#FFB6B6"/>
<path d="M116.665 120.692C116.665 120.692 113.9 133.129 110.674 138.657L134.177 152.477L152.611 140.5C152.611 140.5 143.855 126.22 145.237 122.074L116.665 120.692Z" fill="#FFB6B6"/>
<path d="M276.797 293.833L267.77 293.832L263.476 259.03L276.799 259.031L276.797 293.833Z" fill="#FFB6B6"/>
<path d="M245.871 293.629C245.59 294.102 245.441 295.629 245.441 296.179C245.441 297.87 246.813 299.241 248.505 299.241H276.459C277.613 299.241 278.549 298.306 278.549 297.152V295.989C278.549 295.989 279.932 292.493 277.085 288.183C277.085 288.183 273.546 291.557 268.259 286.272L266.7 283.449L255.413 291.7L249.157 292.47C247.788 292.638 246.575 292.443 245.871 293.629Z" fill="#2F2E41"/>
<path d="M304.699 293.833L295.672 293.832L291.378 259.03L304.7 259.031L304.699 293.833Z" fill="#FFB6B6"/>
<path d="M273.773 293.629C273.492 294.102 273.343 295.629 273.343 296.179C273.343 297.87 274.715 299.241 276.407 299.241H304.361C305.515 299.241 306.451 298.306 306.451 297.152V295.989C306.451 295.989 307.834 292.493 304.987 288.183C304.987 288.183 301.448 291.557 296.161 286.272L294.602 283.449L283.315 291.7L277.059 292.47C275.69 292.638 274.477 292.443 273.773 293.629Z" fill="#2F2E41"/>
<path d="M258.018 93.0679C258.018 93.0679 256.71 101.479 258.225 106.907L235.992 146.315L244.641 152.615L273.522 116.292L277.524 98.3458L258.018 93.0679Z" fill="#FFB6B6"/>
<path d="M243.313 158.347C246.377 152.917 246.141 146.981 242.785 145.089C239.429 143.198 234.225 146.067 231.162 151.497C228.098 156.928 228.334 162.864 231.69 164.756C235.046 166.647 240.25 163.778 243.313 158.347Z" fill="#FFB6B6"/>
<path d="M266.691 133.162C266.691 133.162 256.062 140.66 259.716 151.852L256.726 189.606L263.369 267.3H277.679L279.978 211.52L289.278 176.325L290.484 267.3L308.212 266.968C308.212 266.968 309.208 221.481 307.879 218.824C306.551 216.168 307.879 218.299 307.879 218.299L318.841 165.028L317.18 128.513L266.691 133.162Z" fill="#2F2E41"/>
<path d="M292.932 40.5261L273.667 47.8307L275.659 53.1431L259.716 65.0961L270.345 102.283L264.366 135.486L281.638 134.822L318.841 131.501L314.855 90.9942L315.519 51.815L300.904 46.5026L292.932 40.5261Z" fill="#D0FD6C"/>
<path d="M264.698 64.1001L259.716 65.0962C259.716 65.0962 257.39 66.7563 257.39 72.7328C257.39 78.7093 257.39 82.6936 258.055 86.0139C258.055 86.0139 254.069 96.6387 255.397 99.2949C256.726 101.951 273.334 101.951 273.334 101.951L264.698 64.1001Z" fill="#D0FD6C"/>
<path d="M292.153 25.117C292.153 33.4771 285.373 40.2543 277.009 40.2543C268.645 40.2543 261.865 33.4771 261.865 25.117C261.865 16.7569 268.645 9.97974 277.009 9.97974C285.373 9.97974 292.153 16.7569 292.153 25.117Z" fill="#FFB6B6"/>
<path d="M286.473 35.6575C286.473 35.6575 289.155 25.355 286.297 27.1717L281.86 26.7503L284.661 19.2602C284.661 19.2602 279.647 15.5025 277.647 17.6991C275.648 19.8956 276.127 21.1344 274.31 18.2769C272.492 15.4195 268.695 15.4735 265.217 17.5296C261.738 19.5857 259.02 19.9242 259.681 16.1089C260.342 12.2937 259.972 5.8107 262.037 6.54592C264.102 7.28114 263.536 7.69613 264.649 5.03186C265.763 2.3676 265.903 0.889393 268.481 2.02916C271.058 3.16893 277.536 -2.18203 280.212 1.05533C282.889 4.29269 285.227 4.81308 287.565 5.33347C289.903 5.85387 299.296 4.35964 298.511 18.9023C298.511 18.9023 304.781 31.4303 293.487 37.2187C293.487 37.2187 290.422 34.1952 288.282 37.87L286.473 35.6575Z" fill="#2F2E41"/>
<path d="M141.09 68.1769L126.343 68.6375L118.508 78.3113L109.752 80.1539C109.752 80.1539 106.987 105.951 111.135 115.164C115.282 124.377 113.439 127.141 113.439 127.141L146.62 126.68C146.62 126.68 145.698 120.423 151.228 115.029L154.002 104.77C155.485 99.2853 154.979 93.4528 152.576 88.3041L146.62 75.5474L141.551 73.7047L141.09 68.1769Z" fill="#2F2E41"/>
<path d="M113.439 132.669L111.365 136.124C111.365 136.124 104.913 144.876 103.992 169.751C103.07 194.627 110.674 275.12 110.674 275.12H121.197L132.574 166.217L147.772 275.241L161.367 275.472L160.215 164.224C160.215 164.224 157.45 138.888 150.076 133.36C150.076 133.36 126.343 154.78 113.439 132.669Z" fill="#2F2E41"/>
<path d="M94.2464 78.0964C94.2464 82.8788 93.9582 86.4372 88.7337 86.7557C83.8266 87.0547 83.2209 82.8788 83.2209 78.0964C83.2209 73.314 83.3352 69.4759 88.7337 69.4371C94.8799 69.393 94.2464 73.314 94.2464 78.0964Z" fill="#D0FD6C"/>
<path d="M124.96 78.0962C124.96 82.8786 126.217 86.4371 119.447 86.7555C114.239 87.0004 113.935 82.8786 113.935 78.0962C113.935 73.3138 114.7 69.9736 119.447 69.437C123.913 68.9322 124.96 73.3138 124.96 78.0962Z" fill="#D0FD6C"/>
<path d="M120.235 74.1602H89.5212V81.245H120.235V74.1602Z" fill="#D0FD6C"/>
<path d="M147.244 76.7144C147.244 81.4968 146.956 85.0553 141.731 85.3737C136.824 85.6728 136.218 81.4968 136.218 76.7144C136.218 71.9321 136.333 68.0939 141.731 68.0552C147.877 68.0111 147.244 71.9321 147.244 76.7144Z" fill="#D0FD6C"/>
<path d="M177.958 76.7143C177.958 81.4967 179.215 85.0551 172.445 85.3735C167.237 85.6185 166.932 81.4967 166.932 76.7143C166.932 71.9319 167.697 68.5916 172.445 68.055C176.911 67.5502 177.958 71.9319 177.958 76.7143Z" fill="#D0FD6C"/>
<path d="M173.232 72.7782H142.519V79.8631H173.232V72.7782Z" fill="#D0FD6C"/>
<path d="M227.431 152.262C227.431 157.044 227.143 160.603 221.918 160.921C217.011 161.22 216.406 157.044 216.406 152.262C216.406 147.48 216.52 143.641 221.918 143.603C228.065 143.559 227.431 147.48 227.431 152.262Z" fill="#2F2E41"/>
<path d="M258.145 152.262C258.145 157.044 259.402 160.603 252.632 160.921C247.424 161.166 247.119 157.044 247.119 152.262C247.119 147.479 247.884 144.139 252.632 143.602C257.098 143.098 258.145 147.479 258.145 152.262Z" fill="#2F2E41"/>
<path d="M253.42 148.326H222.706V155.411H253.42V148.326Z" fill="#2F2E41"/>
<path d="M158.111 87.5952C161.418 87.5952 164.099 83.2568 164.099 77.9051C164.099 72.5534 161.418 68.215 158.111 68.215C154.804 68.215 152.124 72.5534 152.124 77.9051C152.124 83.2568 154.804 87.5952 158.111 87.5952Z" fill="#FFB6B6"/>
<path d="M129.799 62.6491C138.834 62.6491 146.159 55.3275 146.159 46.2959C146.159 37.2642 138.834 29.9426 129.799 29.9426C120.764 29.9426 113.439 37.2642 113.439 46.2959C113.439 55.3275 120.764 62.6491 129.799 62.6491Z" fill="#FFB6B6"/>
<path d="M126.514 51.4343L130.3 45.4129L132.004 37.224C132.004 37.224 149.248 41.4281 144.622 33.02C139.995 24.612 128.219 22.5099 120.228 28.816L116.784 32.1792C116.784 32.1792 124.434 25.0324 119.808 22.5099C115.181 19.9875 116.022 18.3059 113.499 20.4079C110.975 22.5099 112.237 24.1916 109.293 22.9303C106.349 21.6691 100.04 19.9875 100.882 22.0895C101.723 24.1916 95.3776 29.6568 97.709 32.1792C100.04 34.7016 97.9375 39.7465 102.143 38.4852C106.349 37.224 104.246 43.5301 108.031 41.0077C108.031 41.0077 104.925 44.9652 107.448 47.9081C109.971 50.8509 113.86 51.9958 113.439 56.1999C113.018 60.4039 123.117 61.2671 123.117 61.2671L122.331 48.9953C122.331 48.9953 124.832 46.9456 126.514 51.4343Z" fill="#2F2E41"/>
<path d="M293.076 79.6525C293.076 79.6525 290.664 87.8162 291.445 93.3966L264.179 129.508L271.915 136.9L305.361 104.728L311.71 87.4704L293.076 79.6525Z" fill="#FFB6B6"/>
<path d="M269.838 142.405C273.596 137.429 274.149 131.514 271.074 129.194C267.999 126.874 262.461 129.028 258.703 134.005C254.946 138.981 254.392 144.896 257.467 147.216C260.542 149.535 266.081 147.382 269.838 142.405Z" fill="#FFB6B6"/>
<path d="M312.836 49.6334C312.836 49.6334 321.33 52.7137 320.249 58.5542C319.169 64.3946 318.758 68.2449 318.758 68.2449C318.758 68.2449 319.679 71.4351 318.478 73.0252C317.278 74.6154 311.113 93.2599 311.113 93.2599L288.943 85.6859C288.943 85.6859 301.94 49.7333 312.836 49.6334Z" fill="#D0FD6C"/>
<path d="M371 299.613C371 299.827 370.827 300 370.613 300H0.387125C0.173324 300 0 299.827 0 299.613C0 299.399 0.17332 299.226 0.387125 299.226H370.613C370.827 299.226 371 299.399 371 299.613Z" fill="#E6E6E6"/>
<path d="M111.342 78.3439C111.342 83.6956 108.661 88.034 105.354 88.034C102.047 88.034 99.3667 83.6956 99.3667 78.3439C99.3667 72.9922 102.047 68.6538 105.354 68.6538C108.661 68.6538 111.342 72.9922 111.342 78.3439Z" fill="#FFB6B6"/>
</g>
<defs>
<clipPath id="clip0_199_346">
<rect width="371" height="300" fill="white"/>
</clipPath>
</defs>
</svg>
